<svg width="15" height="16" viewBox="0 0 15 16" fill="none" xmlns="http://www.w3.org/2000/svg">
<path d="M13.2921 0.955177H1.29296C1.15808 0.953304 1.02415 0.978019 0.898818 1.02791C0.773489 1.0778 0.659215 1.1519 0.562524 1.24596C0.465832 1.34002 0.388617 1.4522 0.335287 1.57611C0.281957 1.70001 0.253557 1.83321 0.251709 1.96809V14.1089C0.253557 14.2438 0.281957 14.377 0.335287 14.5009C0.388617 14.6248 0.465832 14.737 0.562524 14.8311C0.659215 14.9251 0.773489 14.9992 0.898818 15.0491C1.02415 15.099 1.15808 15.1237 1.29296 15.1218H13.2921C13.427 15.1237 13.5609 15.099 13.6863 15.0491C13.8116 14.9992 13.9259 14.9251 14.0226 14.8311C14.1192 14.737 14.1965 14.6248 14.2498 14.5009C14.3031 14.377 14.3315 14.2438 14.3334 14.1089V1.96809C14.3315 1.83321 14.3031 1.70001 14.2498 1.57611C14.1965 1.4522 14.1192 1.34002 14.0226 1.24596C13.9259 1.1519 13.8116 1.0778 13.6863 1.02791C13.5609 0.978019 13.427 0.953304 13.2921 0.955177ZM4.52296 12.8127H2.39796V6.43768H4.52296V12.8127ZM3.46046 5.54518C3.16739 5.54518 2.88633 5.42876 2.67911 5.22153C2.47188 5.0143 2.35546 4.73324 2.35546 4.44018C2.35546 4.14711 2.47188 3.86605 2.67911 3.65882C2.88633 3.4516 3.16739 3.33518 3.46046 3.33518C3.61608 3.31753 3.77367 3.33295 3.92291 3.38043C4.07216 3.42791 4.20969 3.50637 4.32651 3.61069C4.44332 3.71501 4.53679 3.84282 4.60078 3.98577C4.66478 4.12871 4.69786 4.28356 4.69786 4.44018C4.69786 4.59679 4.66478 4.75164 4.60078 4.89459C4.53679 5.03753 4.44332 5.16535 4.32651 5.26966C4.20969 5.37398 4.07216 5.45245 3.92291 5.49993C3.77367 5.54741 3.61608 5.56283 3.46046 5.54518ZM12.1871 12.8127H10.0621V9.39143C10.0621 8.53435 9.75754 7.97476 8.98546 7.97476C8.74651 7.97651 8.51384 8.05146 8.3188 8.18951C8.12376 8.32756 7.97572 8.52207 7.89462 8.74685C7.83919 8.91333 7.81518 9.08867 7.82379 9.26393V12.8056H5.69879C5.69879 12.8056 5.69879 7.01143 5.69879 6.43059H7.82379V7.33018C8.01683 6.99521 8.2976 6.71925 8.63585 6.53203C8.97411 6.3448 9.35703 6.25341 9.74337 6.26768C11.16 6.26768 12.1871 7.18143 12.1871 9.14351V12.8127Z" fill="#EFECE6"/>
</svg>
