<svg width="15" height="12" viewBox="0 0 15 12" fill="none" xmlns="http://www.w3.org/2000/svg">
<path d="M14.3759 1.64681C13.8435 1.8778 13.2804 2.03049 12.7042 2.10015C13.3121 1.737 13.7676 1.1657 13.9863 0.492229C13.4151 0.832273 12.7898 1.07186 12.1376 1.20056C11.7016 0.7278 11.1211 0.413105 10.487 0.305832C9.85294 0.198558 9.2012 0.304774 8.634 0.607821C8.0668 0.910868 7.61622 1.3936 7.35294 1.98032C7.08966 2.56704 7.02856 3.22455 7.17923 3.84973C6.02424 3.79131 4.89446 3.49057 3.86328 2.96705C2.83209 2.44352 1.92258 1.70893 1.19381 0.810979C0.938201 1.25735 0.803888 1.76285 0.804228 2.27723C0.803322 2.75492 0.920549 3.22542 1.14547 3.64684C1.37039 4.06826 1.69603 4.42752 2.09339 4.69265C1.63155 4.68008 1.17956 4.55615 0.775895 4.3314V4.36681C0.779357 5.03611 1.01389 5.68367 1.43983 6.19995C1.86576 6.71624 2.45695 7.06956 3.11339 7.20015C2.8607 7.27705 2.59835 7.31759 2.33423 7.32056C2.1514 7.31843 1.96903 7.30185 1.78881 7.27098C1.97575 7.84672 2.3375 8.34987 2.82374 8.71043C3.30998 9.07098 3.89651 9.271 4.50173 9.28265C3.47975 10.0868 2.21798 10.5257 0.917562 10.5293C0.680791 10.5301 0.444208 10.5159 0.209229 10.4868C1.53695 11.3441 3.08422 11.7992 4.66464 11.7972C5.75526 11.8086 6.8372 11.6025 7.84727 11.191C8.85734 10.7795 9.77528 10.1708 10.5475 9.40058C11.3197 8.63035 11.9307 7.71396 12.3448 6.70495C12.7589 5.69594 12.9678 4.61454 12.9592 3.5239C12.9592 3.40348 12.9592 3.27598 12.9592 3.14848C13.5151 2.73397 13.9944 2.22582 14.3759 1.64681Z" fill="#EFECE6"/>
</svg>
