<svg width="17" height="12" viewBox="0 0 17 12" fill="none" xmlns="http://www.w3.org/2000/svg">
<path d="M16.0842 4.4163C16.1192 3.40243 15.8975 2.39614 15.4396 1.49088C15.129 1.11943 14.6978 0.868758 14.2213 0.782546C12.2504 0.60371 10.2713 0.530411 8.29254 0.562963C6.321 0.528934 4.34904 0.599867 2.38504 0.775463C1.99675 0.846096 1.63741 1.02823 1.35087 1.29963C0.713374 1.88755 0.64254 2.89338 0.571707 3.74338C0.468936 5.27165 0.468936 6.8051 0.571707 8.33338C0.592199 8.81179 0.663432 9.28668 0.784207 9.75004C0.869614 10.1078 1.04241 10.4388 1.28712 10.7134C1.5756 10.9992 1.94331 11.1917 2.34254 11.2659C3.86965 11.4544 5.40836 11.5325 6.94671 11.4996C9.42587 11.535 11.6005 11.4996 14.1717 11.3013C14.5807 11.2316 14.9588 11.0389 15.2555 10.7488C15.4538 10.5504 15.6019 10.3076 15.6875 10.0405C15.9409 9.26315 16.0653 8.44962 16.0559 7.63213C16.0842 7.23546 16.0842 4.8413 16.0842 4.4163ZM6.69171 8.05713V3.67255L10.885 5.87546C9.70921 6.52713 8.15796 7.2638 6.69171 8.05713Z" fill="#EFECE6"/>
</svg>
